<?xml version="1.0" encoding="utf-8"?>
<!-- Generator: Adobe Illustrator 19.0.0, SVG Export Plug-In . SVG Version: 6.00 Build 0)  -->
<svg version="1.1" id="Layer_1" xmlns="http://www.w3.org/2000/svg" xmlns:xlink="http://www.w3.org/1999/xlink" x="0px" y="0px"
	 viewBox="-245.3 342 83.3 47.7" style="enable-background:new -245.3 342 83.3 47.7;" xml:space="preserve">
<style type="text/css">
	.st0{fill:#FFFFFF;}
</style>
<path class="st0" d="M-168.2,361.8h-61.3l11.3-11.3c1.6-1.6,1.6-4.1,0-5.7s-4.1-1.6-5.7,0l-18.1,18.1l0,0c-0.2,0.2-0.4,0.4-0.5,0.6
	c-0.1,0.1-0.1,0.2-0.2,0.3c-0.1,0.1-0.2,0.3-0.2,0.4c0,0.1-0.1,0.2-0.1,0.4c0,0.1-0.1,0.3-0.1,0.4c0,0.2-0.1,0.4-0.1,0.6
	c0,0.1,0,0.1,0,0.2c0,0.1,0,0.1,0,0.2c0,0.2,0,0.4,0.1,0.6c0,0.1,0.1,0.3,0.1,0.4c0,0.1,0.1,0.2,0.1,0.3c0.1,0.2,0.1,0.3,0.2,0.4
	c0,0.1,0.1,0.2,0.1,0.2c0.1,0.2,0.3,0.4,0.5,0.6l18.1,18.1c0.8,0.8,1.8,1.2,2.8,1.2s2-0.4,2.8-1.2c1.6-1.6,1.6-4.1,0-5.7l-11.3-11.3
	h61.3c2.2,0,4-1.8,4-4S-166,361.8-168.2,361.8z"/>
</svg>
